<!DOCTYPE svg PUBLIC "-//W3C//DTD SVG 20010904//EN" "http://www.w3.org/TR/2001/REC-SVG-20010904/DTD/svg10.dtd">
<svg version="1.0" xmlns="http://www.w3.org/2000/svg" width="600px" height="700px" viewBox="0 0 6000 7000" preserveAspectRatio="xMidYMid meet">
<g id="layer101" fill="#010101" stroke="none">
 <path d="M2815 5540 c-437 -48 -761 -150 -1110 -352 -56 -32 -95 -58 -332 -223 -48 -33 -91 -68 -97 -78 -6 -10 -53 -61 -105 -115 -91 -95 -246 -285 -271 -333 -7 -13 -21 -33 -30 -44 -40 -44 -167 -281 -218 -405 -185 -454 -245 -956 -166 -1390 8 -47 19 -111 25 -142 11 -69 84 -301 129 -413 223 -557 662 -1037 1197 -1308 315 -160 606 -243 968 -278 364 -35 808 37 1180 191 131 54 366 180 410 220 11 9 31 23 44 30 59 31 256 195 366 306 235 237 435 538 555 839 45 112 118 344 129 413 6 31 17 95 25 141 42 231 44 545 5 770 -11 64 -25 142 -30 173 -12 75 -97 342 -138 438 -71 163 -182 372 -221 415 -9 11 -23 31 -30 44 -27 53 -184 244 -284 346 -58 59 -106 112 -106 117 0 5 -8 12 -17 15 -10 4 -56 37 -103 74 -338 265 -705 434 -1105 509 -117 22 -497 66 -508 59 -1 -1 -74 -9 -162 -19z"/>
 </g>
<g id="layer102" fill="#ffffff" stroke="none">
 <path d="M3780 5067 c-75 -100 -256 -282 -520 -521 -73 -66 -42 -51 67 31 148 112 366 335 448 459 40 60 43 84 5 31z"/>
 <path d="M2017 4922 c91 -89 349 -267 498 -344 85 -44 227 -98 257 -98 7 0 -38 25 -101 55 -168 81 -492 283 -641 398 -100 77 -101 76 -13 -11z"/>
 <path d="M1307 4919 c-20 -17 -37 -34 -37 -38 0 -4 -43 -52 -96 -106 -94 -97 -249 -287 -274 -336 -7 -13 -21 -33 -30 -44 -40 -44 -167 -281 -218 -405 -185 -454 -245 -956 -166 -1390 8 -47 19 -111 25 -142 11 -69 84 -301 129 -413 223 -557 662 -1037 1197 -1308 315 -160 606 -243 968 -278 364 -35 808 37 1180 191 131 54 366 180 410 220 11 9 31 23 44 30 59 31 256 195 366 306 235 237 435 538 555 839 45 112 118 344 129 413 6 31 17 95 25 141 42 231 44 545 5 770 -11 64 -25 142 -30 173 -12 75 -97 342 -138 438 -71 163 -182 372 -221 415 -9 11 -23 31 -30 44 -27 53 -184 244 -284 346 -58 59 -106 112 -106 116 0 14 -22 22 -29 10 -16 -25 -519 -207 -621 -225 l-35 -6 37 18 c89 43 45 40 -82 -6 -68 -24 -72 -27 -45 -32 29 -6 28 -6 -29 -33 -32 -15 -65 -27 -72 -27 -24 0 -15 30 11 40 33 13 32 20 -4 20 -19 0 -30 -6 -33 -18 -4 -14 -55 -35 -199 -84 -327 -111 -398 -138 -362 -138 38 0 368 94 493 140 46 17 86 28 87 23 2 -4 26 -53 53 -108 27 -54 48 -101 46 -102 -23 -23 -422 -32 -585 -13 -167 19 -83 -12 99 -36 131 -18 345 -14 447 9 l62 13 32 -44 c18 -25 58 -72 89 -106 31 -33 59 -68 63 -78 16 -43 -59 -68 -207 -68 l-82 0 28 -85 c16 -46 33 -121 39 -167 6 -46 14 -109 18 -141 8 -56 7 -58 -13 -52 -134 39 -423 60 -624 45 -128 -9 -331 -36 -340 -45 -2 -2 -19 7 -38 20 -19 13 -60 27 -92 32 -77 11 -281 7 -378 -7 -146 -21 -169 -36 -160 -107 3 -21 8 -68 11 -104 l5 -67 -47 -28 c-218 -126 -418 -339 -539 -573 -37 -71 -39 -80 -39 -165 0 -73 4 -99 21 -130 49 -95 119 -105 254 -37 47 24 99 54 117 67 l31 24 19 -33 c10 -17 30 -59 43 -92 33 -83 135 -296 151 -317 10 -12 19 -15 28 -9 12 8 13 16 2 52 -17 57 -108 233 -214 414 -102 173 -114 191 -124 181 -4 -4 10 -41 32 -81 22 -41 37 -76 35 -78 -23 -20 -218 -127 -241 -132 -86 -19 -153 103 -134 245 12 91 148 271 305 405 267 229 598 383 984 459 203 40 325 49 579 43 246 -7 411 -27 547 -66 101 -30 248 -102 284 -140 l29 -30 -26 -43 c-22 -37 -130 -153 -178 -190 -9 -7 -24 -25 -34 -40 -17 -28 -17 -28 6 -28 43 1 109 38 165 94 94 94 131 210 82 257 -44 41 -220 117 -310 133 -21 4 -40 11 -43 16 -4 6 7 7 27 4 182 -32 330 -100 440 -203 128 -120 237 -300 305 -506 35 -106 36 -115 37 -260 1 -131 -2 -160 -22 -225 -43 -136 -97 -226 -197 -325 -147 -147 -275 -207 -445 -208 -106 -2 -175 12 -267 53 -114 52 -204 127 -271 228 -19 28 -40 52 -47 52 -7 0 -39 -12 -71 -26 -171 -76 -421 -148 -627 -181 -159 -24 -433 -24 -502 1 -27 10 -62 27 -77 38 l-27 19 -54 -53 c-181 -178 -457 -225 -689 -120 -250 113 -431 355 -458 612 -27 251 111 586 329 800 153 150 278 205 467 205 l111 -1 7 106 c11 170 26 280 53 365 41 136 48 121 -55 128 -166 12 -177 35 -74 149 38 41 76 85 84 97 l16 23 114 -16 c243 -33 425 -29 556 14 l57 18 -60 -6 c-96 -11 -412 -7 -515 7 -139 18 -133 14 -103 67 23 40 29 45 52 40 14 -3 69 -15 121 -27 102 -22 390 -39 390 -22 0 5 -56 14 -125 21 -99 9 -381 57 -392 66 -2 1 11 34 27 72 43 101 43 102 -37 102 -38 0 -99 8 -138 16 -151 35 -482 148 -630 215 -58 26 -66 33 -55 46 19 23 8 18 -33 -16z m805 -421 c36 -10 46 -16 39 -27 -7 -11 -23 -8 -91 14 -71 22 -200 80 -200 88 0 1 46 -12 103 -30 56 -18 123 -38 149 -45z m-65 -134 c34 -7 41 -12 33 -24 -8 -12 -18 -12 -71 -1 -91 18 -202 55 -206 67 -2 6 37 2 99 -12 57 -12 122 -26 145 -30z m2040 30 c-49 -27 -119 -44 -136 -34 -9 5 -14 10 -11 11 44 11 157 37 165 37 6 1 -3 -6 -18 -14z m-1787 -3084 l0 -190 -25 0 -25 0 0 190 0 190 25 0 25 0 0 -190z m269 165 c11 -11 22 -36 26 -55 9 -53 -20 -91 -105 -136 -83 -43 -99 -64 -75 -100 14 -22 22 -24 90 -24 68 0 75 -2 75 -20 0 -18 -7 -20 -75 -20 -112 0 -145 21 -145 95 0 44 22 67 105 112 50 27 72 46 79 66 16 46 -9 61 -109 66 -77 3 -85 5 -85 23 0 19 6 20 100 16 83 -2 103 -6 119 -23z m131 -165 l0 -190 -25 0 -25 0 0 190 0 190 25 0 25 0 0 -190z m350 33 c29 -87 55 -161 59 -165 4 -4 32 65 63 155 l55 162 52 3 51 3 0 -151 c0 -147 1 -152 25 -175 45 -46 115 -22 115 40 0 42 -29 65 -82 65 -31 0 -38 4 -38 19 0 15 10 19 56 23 30 3 61 11 68 19 26 26 27 55 5 82 -18 23 -28 27 -75 27 -51 0 -54 1 -54 25 0 23 3 25 49 25 67 0 109 -17 126 -51 26 -50 15 -116 -23 -145 -13 -10 -13 -14 1 -35 35 -49 15 -122 -38 -144 -44 -19 -88 -19 -125 0 -50 26 -60 59 -60 205 0 71 -4 130 -8 130 -4 0 -34 -76 -67 -170 -60 -169 -60 -170 -90 -170 -30 0 -31 0 -95 182 -35 100 -66 176 -68 170 -2 -7 -16 -12 -32 -12 -48 0 -77 -17 -89 -51 -6 -17 -11 -90 -11 -160 0 -122 -1 -129 -20 -129 -19 0 -20 7 -20 154 0 141 2 155 21 180 29 37 52 45 131 45 l66 1 52 -157z m739 132 c11 -11 22 -36 26 -55 9 -53 -20 -91 -105 -136 -83 -43 -99 -64 -75 -100 14 -22 22 -24 90 -24 68 0 75 -2 75 -20 0 -18 -7 -20 -75 -20 -112 0 -145 21 -145 95 0 44 22 67 105 112 50 27 72 46 79 66 16 46 -9 61 -109 66 -77 3 -85 5 -85 23 0 19 6 20 100 16 83 -2 103 -6 119 -23z"/>
 <path d="M2973 4513 c-30 -27 -93 -108 -93 -121 0 -28 119 -42 179 -21 54 19 52 38 -10 102 -55 56 -57 57 -76 40z"/>
 <path d="M3360 3243 c-242 -18 -591 -109 -814 -212 -91 -42 -271 -145 -280 -160 -4 -5 37 15 90 46 266 153 678 279 1007 309 42 4 77 11 77 15 0 5 -8 8 -17 7 -10 -1 -38 -3 -63 -5z"/>
 <path d="M4080 3235 c-14 -17 -14 -21 25 -280 14 -93 29 -197 32 -230 6 -55 7 -57 15 -30 11 37 -20 524 -35 543 -13 16 -22 15 -37 -3z"/>
 <path d="M3480 3120 c0 -15 319 -333 350 -350 25 -12 -5 22 -175 198 -95 99 -175 168 -175 152z"/>
 <path d="M2649 2724 c-66 -141 -142 -324 -137 -329 2 -2 46 91 98 208 51 117 95 215 97 220 2 4 1 7 -2 7 -3 0 -29 -48 -56 -106z"/>
 <path d="M4106 2636 c-25 -51 -169 -201 -256 -266 -36 -27 -96 -67 -133 -88 l-67 -39 26 -18 c36 -23 57 -16 158 57 158 112 304 296 294 370 -3 24 -5 22 -22 -16z"/>
 <path d="M3605 2594 c-146 -36 -311 -89 -465 -149 -147 -57 -340 -150 -380 -183 -14 -12 14 -1 61 23 48 25 137 65 198 90 125 50 490 170 638 211 54 14 100 28 102 30 12 11 -65 0 -154 -22z"/>
 </g>

</svg>